<?xml version="1.0" encoding="utf-8"?>
<!-- Generator: Adobe Illustrator 25.0.0, SVG Export Plug-In . SVG Version: 6.00 Build 0)  -->
<svg version="1.1" id="Capa_1" xmlns="http://www.w3.org/2000/svg" xmlns:xlink="http://www.w3.org/1999/xlink" x="0px" y="0px"
	 viewBox="0 0 1916.53 314.08" style="enable-background:new 0 0 1916.53 314.08;" xml:space="preserve">
<style type="text/css">
	.st0{fill:#FFFFFF;}
	.st1{fill:#84E100;}
	.st2{fill:#A1DD1C;}
</style>
<g>
	<path class="st0" d="M983.99,79.06c-1.5-0.86-5.23-2.62-11.21-5.29c-8.06-3.31-16.42-5.83-24.98-7.53
		c-12.86-2.55-25.96-3.73-39.07-3.52c-17.08-0.45-34,3.46-49.15,11.36c-13.49,7.31-24.56,18.39-31.86,31.87
		c-7.7,14.59-11.56,30.9-11.21,47.39c-0.51,15.5,2.97,30.89,10.1,44.67c6.14,11.48,15.49,20.94,26.89,27.21
		c11.36,6.13,24.09,9.26,36.99,9.13c19.02,1.11,37.31-7.44,48.68-22.73l4.43,19.85h46.33l-5.92-36.36V79.06z M939.16,155.58
		c0.4,10.9-2.87,21.6-9.29,30.43c-6.73,8.36-17.14,12.91-27.86,12.17c-11.08,0.57-21.79-4.05-28.98-12.49
		c-7.49-10.04-11.17-22.41-10.41-34.9c-0.72-13.7,3.36-27.24,11.53-38.27c8.43-9.84,21.01-15.12,33.94-14.25
		c7.49-0.31,14.98,0.45,22.25,2.24c3,0.9,5.93,1.98,8.8,3.21V155.58z"/>
	<path class="st0" d="M1009.78,68.4c0,36.35,22.27,36.5,29.52,36.5h69.72c-0.84,0.64-94.22,85.99-95.46,87.09
		c-0.3,0.3-0.59,0.63-0.86,0.96h-0.08c-0.14,0.12-0.19,0.29-0.31,0.42c-0.29,0.35-0.57,0.74-0.82,1.12
		c-0.68,0.94-1.17,2.01-1.43,3.14c-0.17,0.58-0.3,1.18-0.38,1.78c0,0.07-0.04,0.12-0.04,0.19v0.19c-0.06,0.42-0.1,0.84-0.13,1.28
		v30.64h0.13h158.81c0-36.35-22.26-36.5-29.52-36.5l-69.72-0.01h-0.13c0.95-0.73,95.12-86.8,96.52-88.04
		c1.9-1.69,2.99-4.11,2.98-6.66V68.4h-59.37H1009.78z"/>
	<path class="st0" d="M760.13,66.25c-12.86-2.56-25.96-3.74-39.07-3.52c-17.08-0.46-34,3.46-49.15,11.36
		c-13.49,7.3-24.57,18.38-31.86,31.86c-7.7,14.59-11.56,30.9-11.21,47.39c-0.52,15.51,2.97,30.89,10.09,44.67
		c6.15,11.48,15.49,20.94,26.9,27.22c11.36,6.12,24.08,9.26,36.98,9.12c19.02,1.11,37.31-7.44,48.67-22.73
		c0,37.56-3.39,64.25-42.26,64.25c-20.02,0.63-39.88-3.77-57.77-12.78l-10.58,34.39c21.87,12.12,46.73,17.8,71.7,16.39
		c53.92,0,83.73-17.4,83.73-102.24V79.06c-1.49-0.85-5.23-2.62-11.2-5.29C777.05,70.46,768.68,67.94,760.13,66.25 M742.2,186.01
		c-6.74,8.37-17.14,12.91-27.87,12.17c-11.07,0.57-21.78-4.05-28.98-12.49c-7.48-10.04-11.17-22.4-10.4-34.9
		c-0.72-13.7,3.35-27.24,11.52-38.27c8.43-9.83,21.02-15.11,33.95-14.24c10.57,0.17,21.06,2,31.06,5.44v51.87
		C751.89,166.48,748.62,177.19,742.2,186.01"/>
	<path class="st0" d="M1426.67,196.54c-1.69,0.73-3.3,1.39-4.85,1.97c-7.21,2.34-20.08,3.95-22.16-13.39
		c-0.02-0.52-0.06-0.97-0.06-1.51L1399.67,0c-44.14,0-44.9,26.66-44.91,35.93l-0.01,0.05v150.87c0,22.77,8.02,49.38,44.02,49.38
		c13.16-0.03,26.09-3.46,37.55-9.94L1426.67,196.54z"/>
	<path class="st0" d="M1322.25,183.29c-1.07,0.65-2.18,1.24-3.31,1.77c-14.64,7.38-30.75,11.4-47.14,11.76
		c-1.44,0.08-2.89,0.16-4.27,0.14l-0.15,0.01c-0.29,0-0.55-0.07-0.84-0.07c-2.52-0.05-5.04-0.25-7.54-0.63
		c-0.36-0.05-0.68-0.17-1.04-0.24c-2.31-0.39-4.6-0.96-6.83-1.69c-14.83-4.89-24.68-15.61-24.68-22.93c0,0,4.98,0.07,12.76-0.21
		c2.26-0.09,4.82-0.22,7.49-0.37c13.84-0.48,27.59-2.29,41.08-5.4c33.06-8.31,42.84-23.38,42.85-44.48v-0.03
		c0-42.3-36.04-60.59-70.3-60.59c-0.14,0-0.29-0.02-0.42-0.02l-0.03,0.02c-2.2,0.05-4.43,0.18-6.68,0.44
		c-15.8,1.57-30.89,7.37-43.68,16.77c-11.9,8.86-21,20.96-26.18,34.85c-5.58,15.27-7.24,31.69-4.82,47.75
		c1.48,16.74,7.62,32.72,17.73,46.15c9.01,11.27,21.22,19.55,35.03,23.73c15.06,4.4,30.89,5.5,46.42,3.21
		c10.72-1.24,21.29-3.52,31.56-6.81c7.12-2.27,14.05-5.1,20.71-8.47c1.12-0.6,2.1-1.13,2.99-1.62L1322.25,183.29z M1258.73,93.27
		c24.92,0,32.05,12.89,32.05,21.17c0,14.93-3.3,22.25-69.39,22.25C1221.38,116.11,1231.69,93.27,1258.73,93.27"/>
	<path class="st1" d="M1915.71,242.01l-0.03-0.07c-35-26.22-75.21-44.64-117.93-53.99l-1.4-0.3l-0.21-0.06
		c-3.52-1.15-5.46-4.93-4.31-8.47l0.06-0.17c1.95-7.69,3.11-15.55,3.45-23.47c0.37-15.24-8.84-31.25-8.41-48.98
		c0.41-16.75,20.71-20.81,22.95-21.21c9.51-0.39,17.14-8.02,17.53-17.54c0.16-0.9-0.43-1.78-1.33-1.94l-0.17-0.03
		c-12.83-1.11-25.86-1.88-38.76-2.28c-81.85-2.62-163.51,9.35-241.17,35.37h-0.01h-0.01l-0.08,0.03l0.01,0.02
		c-1.44,0.52-2.18,2.1-1.67,3.53c0.51,1.39,2.02,2.14,3.43,1.7v0.01l0.03-0.01h0.01l0.02-0.01c20.12-6.72,40.95-11.02,62.08-12.81
		c66.71-5.31,122.37,10.3,124.34,34.87c1.95,24.57-50.54,48.79-117.24,54.11c-30.51,2.18-61.15-1.99-89.97-12.24l-0.05-0.01
		c-0.9-0.28-1.86,0.22-2.14,1.12c-0.05,0.14-0.08,0.29-0.08,0.43v0.01c-0.01,0.37,0.11,0.73,0.33,1.03l-0.01,0.01l0.14,0.16
		l0.01,0.01c6.99,6.31,11.34,15.02,12.21,24.39c-0.48,19.98-30.86,33.59-46.21,41.99l0.12,0.03
		c-31.09,16.54-86.7,48.82-110.99,72.74c-0.84,0.81-0.86,2.15-0.05,2.97c0.63,0.64,1.59,0.82,2.39,0.45
		c52.3-24.67,116.97-52.52,172.61-65.39c70.23-16.22,142.26-23.28,214.29-21c11.68,0.36,23.29,1.03,34.84,1.87
		c31.46,2.41,62.73,6.85,93.62,13.29c5.37,1.1,10.73,2.25,16.07,3.44l0.09-0.03c0.11,0.03,0.24,0.06,0.36,0.08
		c1.13,0,2.06-0.93,2.06-2.06C1916.53,242.98,1916.22,242.39,1915.71,242.01"/>
	<path class="st1" d="M168.55,194.08c-6.51,3.77-13.34,6.93-20.42,9.44c-10.85,3.77-22.3,5.54-33.77,5.24
		c-14.52,0.16-28.85-3.24-41.74-9.94c-12.52-6.65-22.85-16.78-29.72-29.17c-7.8-14.68-11.63-31.15-11.1-47.76
		C31.39,105.46,35,89.18,42.34,74.47c6.43-12.57,16.24-23.09,28.32-30.38c12.23-7.13,26.17-10.8,40.32-10.6
		c12.07-0.35,24.07,2.06,35.07,7.08c7.47,3.24,14.23,7.93,19.91,13.76l2.3,2.75l3.19-1.6c2.99-1.62,5.64-3.84,7.74-6.52
		c2.71-3.04,4.24-6.97,4.29-11.05c-0.04-2.73-0.74-5.41-2.07-7.8c-1.84-3.1-4.37-5.75-7.38-7.76c-3.9-2.85-8.14-5.21-12.62-7.02
		c-6.86-2.91-13.99-5.17-21.28-6.73c-9.28-2-18.75-2.97-28.24-2.87c-14.67-0.08-29.23,2.64-42.89,8
		c-13.32,5.27-25.49,13.12-35.78,23.11C22.62,47.24,14.3,59.76,8.81,73.58c-6.06,15.48-9.05,32-8.8,48.62
		c-0.27,16.55,2.78,32.99,8.96,48.35c5.62,13.66,14.05,25.98,24.76,36.15c10.43,9.8,22.7,17.44,36.1,22.47
		c13.85,5.16,28.51,7.77,43.28,7.67c10.21,0.08,20.41-0.99,30.4-3.18c8.19-1.79,16.19-4.36,23.89-7.65
		c5.21-2.22,10.29-4.79,15.17-7.69l3.63-2.26l-13.63-24.54L168.55,194.08z"/>
	<path class="st2" d="M233.58,1.21c-2.16-0.63-4.4-0.95-6.65-0.95c-4.4-0.32-8.71,1.29-11.82,4.42c-2.53,2.92-3.89,6.68-3.77,10.54
		v216.08h29.33V4.14l-2.5-1.24C236.69,2.21,235.16,1.65,233.58,1.21"/>
	<path class="st1" d="M408.86,71.27c-2.15-0.63-4.4-0.95-6.64-0.95c-4.4-0.32-8.72,1.3-11.83,4.44c-2.53,2.91-3.89,6.67-3.76,10.54
		v121.76c-1.67,0.25-4.09,0.57-7.56,0.98c-7.13,0.76-14.3,1.12-21.46,1.05c-21.22,0-36.03-4.11-44.02-12.2
		c-8.89-10.6-13.23-24.27-12.09-38.05V74.18l-2.5-1.24c-1.48-0.68-3.01-1.24-4.59-1.67c-2.16-0.63-4.39-0.95-6.65-0.95
		c-4.4-0.32-8.71,1.3-11.81,4.43c-2.54,2.92-3.89,6.68-3.77,10.54v75.69c-0.52,14.9,3.02,29.67,10.24,42.73
		c6.8,10.51,16.48,18.82,27.89,23.96c14.9,6.08,30.92,8.91,46.98,8.27c7.39,0,14.9-0.26,22.32-0.78c7.33-0.52,13.97-1.2,19.71-2.04
		l16.63-2.39V74.19l-2.49-1.25C411.98,72.26,410.44,71.7,408.86,71.27"/>
	<path class="st1" d="M587.38,105.56c-5.91-12.07-15.14-22.2-26.61-29.21c-11.97-7.04-25.67-10.61-39.57-10.34
		c-8.87-0.2-17.73,1.02-26.21,3.63c-6.4,2.04-12.43,5.14-17.8,9.18c-2.99,2.32-5.8,4.88-8.4,7.64V4.14l-2.5-1.25
		c-1.48-0.68-3.01-1.24-4.59-1.67c-2.16-0.63-4.39-0.96-6.65-0.96c-4.4-0.32-8.71,1.3-11.82,4.43c-2.53,2.91-3.88,6.68-3.76,10.54
		v215.1l3.41,0.85c0.48,0.12,1.48,0.36,16.17,2.4c13.69,1.56,27.45,2.25,41.22,2.04c18.64,0.67,37.16-3.09,54.06-10.96
		c13.62-6.71,24.82-17.47,32.07-30.81c7.09-13.77,10.65-29.09,10.37-44.58C597.12,134.16,593.9,119.19,587.38,105.56 M565.93,149.28
		c0.74,16.14-4.73,31.95-15.28,44.18c-10.03,10.98-26.67,16.54-49.43,16.54c-8.24,0.17-16.46-0.33-24.61-1.48
		c-3.22-0.56-5.82-1.03-7.81-1.4v-57.83c-0.16-10,1.71-19.91,5.48-29.16c3.31-8,8.9-14.85,16.07-19.72
		c8.03-5.05,17.38-7.57,26.86-7.22c13.76-1.23,27.32,4.02,36.67,14.21C562.63,119.53,566.89,134.33,565.93,149.28"/>
</g>
</svg>
